<?xml version="1.0" encoding="UTF-8"?>
<svg version="1.1" viewBox="0 0 6.6893 3.767" xmlns="http://www.w3.org/2000/svg">
<g transform="translate(3.6905 1.6261)">
<path d="m0.2651 0.17371q0.037968 0.032592 0.046032 0.087696h-0.058464q-0.004032-0.032928-0.027216-0.054096-0.023184-0.021168-0.06216-0.021168-0.032928 0-0.051408 0.015792-0.01848 0.015792-0.01848 0.042672 0 0.02016 0.012432 0.032592 0.012432 0.012432 0.030912 0.018816 0.01848 0.006384 0.050736 0.013776 0.040992 0.009408 0.066192 0.019152 0.0252 0.009744 0.043008 0.031248 0.017808 0.021504 0.017808 0.057792 0 0.045024-0.033936 0.073248-0.033936 0.028224-0.090384 0.028224-0.065856 0-0.10752-0.031584-0.041664-0.031584-0.049056-0.088032h0.059136q0.00336 0.0336 0.029232 0.054432 0.025872 0.020832 0.068208 0.020832 0.031584 0 0.049392-0.016128 0.017808-0.016128 0.017808-0.042336 0-0.021504-0.012768-0.034272-0.012768-0.012768-0.031584-0.019488t-0.051744-0.014112q-0.040992-0.009408-0.06552-0.018816-0.024528-0.009408-0.041664-0.029904-0.017136-0.020496-0.017136-0.05544 0-0.046368 0.034272-0.074928 0.034272-0.02856 0.093408-0.02856 0.062496 0 0.10046 0.032592m0.42372-0.009744q0.038304 0.022848 0.060144 0.065856 0.02184 0.043008 0.02184 0.1008 0 0.057792-0.02184 0.10046-0.02184 0.042672-0.060144 0.06552-0.038304 0.022848-0.08736 0.022848-0.05376 0-0.091056-0.027216-0.037296-0.027216-0.051408-0.071568v0.2688h-0.061152v-0.54365h0.061152v0.09408q0.014112-0.044352 0.051408-0.071568 0.037296-0.027216 0.091056-0.027216 0.049056 0 0.08736 0.022848m-0.16934 0.048048q-0.028896 0.016464-0.045024 0.047376-0.016128 0.030912-0.016128 0.071232 0 0.04032 0.016128 0.070896 0.016128 0.030576 0.045024 0.047376 0.028896 0.0168 0.064512 0.0168 0.05712 0 0.091056-0.035952 0.033936-0.035952 0.033936-0.09912 0-0.063168-0.033936-0.09912-0.033936-0.035952-0.091056-0.035952-0.035616 0-0.064512 0.016464m0.59506-0.048048q0.042 0.022848 0.065856 0.065856 0.023856 0.043008 0.023856 0.1008 0 0.057792-0.023856 0.10046-0.023856 0.042672-0.065856 0.06552-0.042 0.022848-0.095088 0.022848t-0.095088-0.022848q-0.042-0.022848-0.066192-0.06552-0.024192-0.042672-0.024192-0.10046 0-0.057792 0.024192-0.1008 0.024192-0.043008 0.066192-0.065856t0.095088-0.022848 0.095088 0.022848m-0.1559 0.045696q-0.027888 0.014784-0.045024 0.04536-0.017136 0.030576-0.017136 0.0756 0 0.044352 0.017136 0.074928 0.017136 0.030576 0.045024 0.04536 0.027888 0.014784 0.060816 0.014784t0.060816-0.014784q0.027888-0.014784 0.045024-0.04536 0.017136-0.030576 0.017136-0.074928 0-0.045024-0.017136-0.0756-0.017136-0.030576-0.045024-0.04536-0.027888-0.014784-0.060816-0.014784t-0.060816 0.014784m0.503 0.25133v0.05376h-0.045696q-0.056448 0-0.084336-0.02688-0.027888-0.02688-0.027888-0.090048v-0.19891h-0.055104v-0.053088h0.055104v-0.092064h0.061824v0.092064h0.095424v0.053088h-0.095424v0.20026q0 0.035616 0.013104 0.04872 0.013104 0.013104 0.04536 0.013104h0.037632m0.076598-0.45058q0.011424-0.010416 0.03024-0.010416 0.018816 4.35e-30 0.03024 0.010416 0.011424 0.010416 0.011424 0.027216 0 0.0168-0.011424 0.027216-0.011424 0.010416-0.03024 0.010416t-0.03024-0.010416q-0.011424-0.010416-0.011424-0.027216 0-0.0168 0.011424-0.027216m0.06048 0.13541v0.36893h-0.061152v-0.36893h0.061152m0.16061-0.12835v0.49728h-0.061152v-0.49728h0.061152m0.16061 0v0.49728h-0.061152v-0.49728h0.061152m0.10013-0.007056q0.011424-0.010416 0.03024-0.010416 0.018816 4.35e-30 0.03024 0.010416 0.011424 0.010416 0.011424 0.027216 0 0.0168-0.011424 0.027216-0.011424 0.010416-0.03024 0.010416-0.018816 0-0.03024-0.010416-0.011424-0.010416-0.011424-0.027216 0-0.0168 0.011424-0.027216m0.06048 0.13541v0.36893h-0.061152v-0.36893h0.061152m0.34171 0.022176q0.037296 0.02688 0.05208 0.071904v-0.09408h0.061152v0.36893h-0.061152v-0.09408q-0.014784 0.045024-0.05208 0.071904t-0.091056 0.02688q-0.049056 0-0.08736-0.022848-0.038304-0.022848-0.060144-0.06552-0.02184-0.042672-0.02184-0.10046 0-0.057792 0.02184-0.1008 0.02184-0.043008 0.060144-0.065856t0.08736-0.022848q0.05376 0 0.091056 0.02688m-0.16397 0.063504q-0.033936 0.035952-0.033936 0.09912 0 0.063168 0.033936 0.09912 0.033936 0.035952 0.090384 0.035952 0.036288 0 0.064848-0.0168 0.02856-0.0168 0.044688-0.047376 0.016128-0.030576 0.016128-0.070896 0-0.04032-0.016128-0.071232-0.016128-0.030912-0.044688-0.047376-0.02856-0.016464-0.064848-0.016464-0.056448 0-0.090384 0.035952" fill="#49ff58"/>
<g clip-path="url(#b)">
<g clip-path="url(#a)">
<path d="m-2.8097 1.1193-0.011614-0.033758c0.044443 0.014092 0.057141 0.039798 0.051721 0.0041811-0.04305 0.030971-0.083467-0.092913-0.12528-0.067981l-0.0044908-0.023848c0.0034068 0.0054199 0.006349 0.0044908 0.009601 0.0097559-0.0060393-0.046456-0.048315-0.0051102-0.071853-0.056832-0.0066588-0.018583-0.0075879-0.033603 0.0043359-0.025551l-0.032984-0.030971c-0.0055748-0.011304 0.0034068-0.012698 0.0092913-0.0015485-0.0018583 9.2913e-4 -0.032674-0.056832-0.032674-0.056832h0.001084c-0.014166-0.0076973-0.027637-0.016609-0.040262-0.026635-9.2913e-4 -0.018273 0.0082073 0.0054199 0.011924-0.001084-0.0093064-0.0090946-0.018144-0.018656-0.02648-0.028648 0.0065039-0.018737 0.028958 0.0046456 0.038869 0.027719 0.030971-0.050328-0.025861-0.022144-0.023073-0.10158l0.017189 0.029577c0.019202-0.030971 7.7427e-4 -0.051257 0.0044908-0.091829-0.0057296 0.010375-0.015485 0.08548-0.040727 0.053115-0.0010756-0.016431-0.0083876-0.031831-0.020441-0.04305 0.016879-0.0052651 0.0075879-0.023848 0-0.048934l0.022764-0.0043359c-0.013163-0.024777-0.024002-0.019821-0.038714-0.033294-0.0052436-0.020794 0.0053872-0.042318 0.025086-0.050792-0.0038714-0.049399-0.023693 0.039333-0.036701-0.017963-0.0015624-0.041175-0.012134-0.081507-0.030971-0.11815 0.0066588-0.029887 0.014247 0.0040262 0.020596-0.0071233l-0.020131-0.024467c0-0.0065039 0.0061942-0.0048005 0.0092913-0.0037165-0.008517-0.02168-0.023693 0-0.0319-0.035462-0.027874-0.009601 0.036391-0.071233 0.01053-0.11459 0.0072782-0.01022 0.014401 0.0058845 0.023383 0.003252-0.0082349-0.034768-0.018578-0.069002-0.030971-0.10251l0.021835-0.038714c-0.022144 0.027409-0.036701-0.014247-0.048315-0.052805-0.0083895 0.0072829-0.016255 0.015148-0.023538 0.023538-0.0072829 0.0083895-0.0027874-0.059309-0.0013937-0.059155 0.0058845-0.0060393 0.012079 0.0015485 0.019202 0.012543-7.7427e-4 -0.0040262-0.0018583-0.0078976-0.0027874-0.011304 0.013472-0.017808 0.024002-0.0043359 0.033294 0.012234l-0.019357 0.016569c0.012079 0.016724 0.025551 0.03221 0.039643 0.030971-0.0026499-0.005886-0.0039717-0.012283-0.0038714-0.018737 0.0037165 0.0041811 0.0065039 0.0071233 0.0089816 0.0057296 0.0024777-0.0013937-0.0018583-0.0078976-0.0051102-0.017653l0.028648-0.0066588-0.0094461-0.0049554 0.033449-0.064265c-0.022242-0.062014-0.026642-0.12902-0.012698-0.19341 0.0086719 0.026325 0.026945 0.015485 0.047231 0.026325-0.030971 0.011304-0.011924 0.061942-0.030971 0.099726 0.010066-0.019667 0.018583-0.011459 0.020131-0.0052651l0.0049554-0.077427c0.016724 0.008517 0.017963-0.0094461 0.034223-0.023538-0.039798-0.0017034 0.0018583-0.060084 0.0051102-0.092913 0.011614 0.0040262 0.019821 0.016415 0.0012388 0.04816 0.04243-0.023383-0.017189-0.068291 0.025706-0.091519-0.0044908 0.0080524-0.0089816 0.011304-0.0049554 0.017344 0.001084-0.023693 0.035926-0.0638 0.038714-0.04754l-0.0046456 0.0077427c0.030971-0.051412 0.10561-0.1482 0.086719-0.17638 0.010114 0.011343 0.019039 0.023692 0.026635 0.036855 0.0075956 0.013163-0.0029422-0.036391-0.0038714-0.07433l-9.2913e-4 -0.077427c0.013008 0.025551 0.083467 0.043204 0.061168 0.09028 0.017639-0.011144 0.03197-0.026812 0.041501-0.045372-0.0099107 0.0034068-0.045063-0.010995-0.03732-0.021989 0.027658-0.0022784 0.054892-0.0082146 0.080989-0.017653-0.015485 0.0055748-0.030971-0.036391-0.012079-0.051567 0.0012388 0.0072782 0.028338 0.030197 0.024932 0.039178 0 0 0.016569-0.06984 0.018118-0.06891-0.0072782 0.014556 0.019667 0.028648 0.037165 0.030971-0.009601-0.0029422 0.039798-0.028803 0.049554-0.041191l-0.025241 0.0068136c0.054664-0.034223 0.019976-0.08486 0.078357-0.11862-0.0024777 0.011614 0.010685 0.055128 0.041037 0.042585-7.0399e-4 -0.059931 0.020559-0.11805 0.059774-0.16337l0.015485 0.0057296s0.037165-0.03252 0.037785-0.030971c-0.016879 0.039643-0.059464 0.13689-0.083157 0.17653 0.025861-0.002168 0.012543 0.0097559 0.044288-0.0068136 0.01626 0.0046456-0.0094461 0.023693-0.018737 0.028648l0.077427-0.028803c-0.014247-0.022144 0.046456-0.048779 0.037475-0.065349-0.0013937-0.0020131-0.072472 0.060393-0.072472 0.060393-0.014247-0.019047 0.016879-0.089971 0.077427-0.10515 0.017963 0.0038714 0.0044908 0.045063 0.0088267 0.052341 0.014377-0.016062 0.033641-0.026945 0.054819-0.030971l-0.019357 0.021215c0.033449-0.0027874 0.040572-0.050483 0.086254-0.036855 0.014092-0.0020131 0.047231 0.020596 0.046456 0.0058845-0.031569-0.035365-0.047439-0.082025-0.043979-0.1293 0.034419 0.0014129 0.068418 0.0080978 0.10081 0.019821 0.026945 0.018428-0.025241 0.057141-0.0020131 0.072782 0-0.0068136 0.01053-0.016724 0.015485-0.020286 0.015485 0.0035617-0.0024777 0.021525 0.028338 0.013782 0.0012388-0.025551 0.063955-0.0077427 0.011459-0.023228 0.030971-0.010995 0.033758-0.0015485 0.069994-0.0048005-0.013472-0.015485 0.028803-0.056367 0.061942-0.065349-0.0015485 0.0066588 0.0060393 0.014401 0.009601 0.017963 0.066433-0.0034068 0.10128 0.015485 0.16213 0.017344 0.0052651 0.0060393 0.033449 0.015485 0.019976 0.025086 0.011016-0.0063565 0.023722-0.009168 0.036391-0.0080524 0.032829 0.02679-0.041191-0.0029422-0.017344 0.026945 0.0041811-0.014092 0.049708-0.012698 0.077427-0.017653-0.0040262-0.023383-0.060548-0.013627-0.087493-0.008517 0.0026325-0.030971 0.053425-0.056057 0.12234-0.059929 0.054044 0.0020131 0.018737 0.024312 0.028493 0.021525 0.092913 0.030971 0.097404-0.034997 0.16957 0.015485 0.024467 0.029732-0.011459 0.037475-0.0091364 0.053425-0.041191-0.0082073-0.057296-0.033139-0.08548-0.039178l0.030971 0.017963c-0.019384 0.0031902-0.039281 1.5418e-4 -0.056832-0.0086719 0.073733 0.028201 0.1458 0.060566 0.21587 0.096939 0.015485-2e-15 0.038249 0.0035617 0.0319-0.0083622l-0.022299-0.0077427c-0.013163-0.024157 0.049708 0 0.025551-0.020286 0.040027-0.0016092 0.079358 0.010825 0.11119 0.035152l-0.0037165 0.024002c0.0023228-0.0061942-0.019047-0.027254-0.033603-0.027719 0.021989 0.001084 0.044443 0.061942 0.077427 0.048005l-0.019357-0.030971c0.032984 0.0080524 0.083622 0.0071233 0.11211 0.039488-0.0023228-0.029577-0.0088267-0.0037165-0.018428-0.04274 0.0041811 0.040417-0.091209-0.057296-0.073556-0.0068136-0.010995-0.040727-0.037475-0.039798-0.061942-0.079905-0.0023228 0.0072782 0.0061942 0.018737-0.024002 0-0.003258 0.0013499-0.0067059 0.0021858-0.01022 0.0024777l-0.0018583-0.0015485 0.0015485 0.0017034c-0.0018583 0-0.0018583 0 0 0 0.0053703 0.0047878 0.0092422 0.011026 0.01115 0.017963-0.023228 0.0075879-0.072472-0.016879-0.092913-0.016724-0.017034-0.011924 0.011304-0.0040262 0.0041811-0.015485l-0.030971 0.001084c0.0040262-0.015485-0.041656-0.044443 0.008517-0.036391l-0.041656-0.015485c-0.02186-0.018835-0.048796-0.030794-0.077427-0.034378-0.019357-0.0086719-0.056522 0.0043359-0.035152-0.0035617l-0.070149-0.007433v-0.0040262c-0.073329-0.0037931-0.14603-0.01558-0.2168-0.035152-0.028406 0.0046742-0.057384 0.0046742-0.08579 0l-0.007433-0.014556c-0.029577 0.0029422-0.090125-0.010995-0.10236 0.0038714-0.035307-0.040107-0.14634 0.0060393-0.19899 0.0083622l0.0013937 0.018583c-0.037623 0.008273-0.074046 0.021281-0.1084 0.038714l0.007433 0.015485c-0.033449 0.020286-0.09632 0.018273-0.15331 0.040572 0.0015485-0.0071233 0.016724-0.010995 0.028029-0.010995-0.083776-0.011769-0.12822 0.08548-0.19759 0.090745-0.0082001 0.010805-0.020223 0.018063-0.033603 0.020286 7.7427e-4 0 0.002168-0.0017034 0.0024777-0.0029422-0.0017486 0.001262-0.0036156 0.0023511-0.0055748 0.003252l-0.023848 0.0044908c0.0069796-3.6802e-5 0.013936-8.1545e-4 0.020751-0.0023228-0.014116 0.0091145-0.027384 0.01948-0.039643 0.030971l-0.015485-0.010685-0.0035617 0.0026325c-0.019357 0.0044908-0.0077427 0.014711 0.0077427 0.020596-0.0058399 0.0068461-0.010545 0.014584-0.013937 0.022919-0.028493-0.014401-0.033139 0.036701-0.067672 0.024312-0.002168 0.018118-0.066897 0.066588-0.052031 0.097868-0.003252-0.0026325-0.0083622 0-0.0012388-0.007433-0.018228 0.0087591-0.033157 0.023146-0.042585 0.041037l-0.021989-0.010375s-0.01115 0.052341-0.010375 0.052805c-0.027564 0.01022-0.041656 0.013627-0.035617-0.018428-0.024467 0.066742-0.029268 0.046456-0.045218 0.10453l-0.0097559-0.011304c-0.011459 0.01626-0.015485 0.05327-0.030971 0.055283-0.052805 0.017034-0.12621 0.17793-0.19403 0.27285 0.047695-0.0038714-0.038559 0.041656-0.0080524 0.059-0.011769 0.0026325-0.022919 0.015485-0.024467-0.0049554-0.01022 0.059-0.04785 0.078511-0.029887 0.12652-0.011614 0.0038714-0.01084-0.016415-0.018583-0.012234 0.0012388 0.0052651 0.0038714 0.020596-0.0034068 0.025241-0.0072782 0.0046456-0.0061942-0.010685-0.0078976-0.021215-0.013627 0.060084 0.015485 0.073091 0.042895 0.083776-0.02168 0.025551-0.022919 0.041346-0.0065039 0.066123-0.01084 0.0082073-0.023693 0.024002-0.02137-0.013163-0.0043359 0.019976-0.033913 0.12388-0.0091364 0.12853-0.006349 0.0058845-0.0034068 0.028648-0.001084 0.034223-0.003797 0.031761-0.0057618 0.063714-0.0058845 0.0957l0.0041811-0.012698c0.02679 0.018118 0.0065039 0.037475 0.011304 0.073866l-0.0024777-0.001084c-0.015485 0.08486 0.0086719 0.035307-0.0051102 0.11955l0.017034-0.0065039c0.038559 0.0023228-0.011614 0.074795 0.01053 0.12048l0.0068136-0.018892c0.01626 0.022609-0.032829 0.081918-0.030971 0.11026-0.0017034 0.0066588-0.007433-0.0077427-0.011614-0.015485-0.0038714 0.075105 0.024467 0.003252 0.04274 0.052496-0.0089816 0.012853-0.034378-0.0029422-0.025706 0.0319-0.0026325 0.020596 0.071698 0.084241 0.069375 0.13658 0.0043359-0.013472 0.008517-0.026325 0.025706-0.0075879 0.019357 0.030971 0.0097559 0.1084 0.053889 0.12218 5.8634e-4 0.0034201-5.7594e-4 0.006907-0.0030971 0.0092913 0.021525 0.020751 0.058845 0.072317 0.081299 0.077427-0.034687 0.057141 0.1259 0.12218 0.08517 0.15485l0.060858 0.061942-0.0055748 0.002168c0.019493 0.028115 0.050598 0.04597 0.084706 0.048624 0.0071233 0.011459-0.0035617 0.0089816-0.006349 0.010375 0.029318 0.046818 0.078547 0.077543 0.13348 0.083312l-0.0051102 0.019047c0.018583 0.0037165 0.082538 0.089661 0.16415 0.10933-0.003127 0.0028869-0.0074232 0.0041471-0.011614 0.0034068 0.086874 0.023228 0.18103 0.13457 0.23491 0.082228 0 0.0015485 0.061168 0 0.061168 0-0.071853-0.023693 0.018583-0.024932-0.0082073-0.04305 0.028493 0.003252 0.067517 0.038094 0.0319 0.03221l-0.0044908-0.0044908c-0.02168 0.029577 0.087028 0.035926 0.080834 0.056677 0.1436 0.031259 0.29064 0.043804 0.43746 0.03732l-0.018892-0.024622c0 9.2913e-4 0.048779-0.0054199 0.048779-0.0054199 0.013318 0.0043359 0.019976 0.018273-0.015485 0.022454 0.020751 0.012388 0.057141-0.021525 0.056677-0.027409 0.070304 0-0.021215 0.034997 0 0.032365l0.028493-0.006349-0.0071233-0.0020131c0.016616-0.017444 0.038276-0.029249 0.061942-0.033758 0.0271-0.0013937 0.017189 0.012698 0.027564 0.01115 0 0.0018583 0.0040262 0.0017034 0.015485-0.003252l0.060858-0.013627-0.030042-0.014092c0.023693-0.016569 0.056522-0.014092 0.022144-0.029422 0.045699 0.005153 0.091905-0.003248 0.13287-0.024157 0.036274-0.018852 0.073723-0.035352 0.11211-0.049399 0.029042-0.029479 0.062668-0.054058 0.099572-0.072782-0.012079 0.0024777-0.030971-0.014401 0.0044908-0.032365 0.015485 0.050483 0.072317-0.023073 0.11924-0.015485-0.036236 0 0.087493-0.076189 0.030042-0.073091 0.027564-0.019512 0.013472 0.012543 0.039953 0.0041811 0.04785-0.066742 0.1386-0.11428 0.19512-0.19914-0.0041811-0.0051102-0.021835 0.0020131-0.016724-0.020905l0.057606-0.023228c0.0086719-0.018428-0.018273-0.034533 0.018892-0.053115-0.0072782 0.0013937-0.018273 0.003252-0.013008-0.0089816 0.13503-0.15067 0.15625-0.36019 0.24452-0.5437-0.016569 0.024777-0.015485 0.0066588-0.012234-0.013937-0.0052651 0.013008-0.015485-0.0026325-0.024932-0.0013937 0 0 0.037475-0.078357 0.035617-0.078976-0.023228-0.017034 0.0029422-0.089196-0.019821-0.098642l0.0029422 0.026016c-0.025551-0.034687-0.063336 0.044598-0.098023 0.036236 0.030971 0.040572-0.057761 0.087803-0.02137 0.153-0.0089816 0.011614-0.0094461-0.013163-0.018428-0.0077427 0.013318 0.017653 0.01084 0.036081-0.0038714 0.066742l-0.0026325-0.0046456c-0.019039 0.077311-0.051482 0.15069-0.095855 0.2168h0.019357c-0.0070715 0.011474-0.016524 0.021297-0.027719 0.028803 0.012388 0.034533 0.028958-0.056212 0.045218-0.023228-0.043359 0.013163-0.071698 0.14417-0.1197 0.13937-0.017963 0.028958 0.022454 0.0020131 0.0043359 0.030971l-0.013937 0.0018583 0.0071233 0.015485c-0.0084327 0.013771-0.025344 0.019774-0.040572 0.014401 0.0042311-0.0057901 0.00762-0.012151 0.010066-0.018892-0.027874 0.015485-0.045218 0.067826-0.054509 0.073246l0.024777-0.022144c-0.059369 0.080025-0.12295 0.15684-0.19047 0.23011l0.010375 0.0015485c-0.044134 0.056987-0.050018 0.027409-0.10654 0.079595l9.2913e-4 -0.0030971c-0.009057 0.017713-0.023621 0.032005-0.041501 0.040727 0.011459-0.018428-0.040882 0.0027874-0.024932-0.019357-0.056057 0.052341-0.024312 0.030971-0.054044 0.081918l-0.017034-0.0068136c-0.0071926 0.020207-0.022445 0.036524-0.04212 0.045063 0.024157-0.024467-0.030971-0.0080524-0.0055748-0.037475-0.082383 0.009601-0.10004 0.072317-0.14866 0.046456-0.023073 0.04847 0.072162-0.0043359 0.055593 0.010375 0.02106 0.0052651-0.019512 0.03701-0.045218 0.04243-0.025086 0.0094461-0.056832-0.033294-0.11846-0.01626 0.0061942-0.0012388 0.0058845-0.0041811 0.012234-0.0055748-0.025551-0.0044908-0.04243 0.026635-0.074485 0.014401-0.012543 0.024932-0.037939 0.0043359-0.038404 0.033913l0.058071-0.015485c-0.030971 0.012388-0.058535 0.050792-0.11707 0.04305 0.0086659-0.0091781 0.018823-0.016822 0.030042-0.022609-0.017189-0.006349-0.030971 0.011459-0.04847 0.0034068 0.0020131-0.027719 0.071233-0.016879 0.10282-0.043514-0.018428-0.009601-0.063026 0.030971-0.049863-0.0029422-0.020441 0.044598-0.061942 0.0041811-0.10344 0.035462l0.0020131-0.017499c-0.010021 0.0062191-0.021182 0.010378-0.032829 0.012234l0.02137-0.023848c-0.034068 0.020905-0.066897-0.011769-0.099417-0.0048005 0.06922 0.0026325 0.015485 0.022609 0.044598 0.035152-0.087648 0.020596-0.048779-0.046456-0.14371-0.043979 0.012543-9.2913e-4 0.046456 0.013008 0.026635 0.020441-0.01897-0.003508-0.036601-0.01219-0.050947-0.025086-0.063181-0.0060393 0.0068136 0.019202-0.02106 0.025706-0.018583-0.024312-0.032365 0.0037165-0.061942 0.0061942l0.0030971-0.017499c-0.069375-0.024777-0.02679 0.03252-0.089041 0.0034068l0.033294-0.016879-0.035152-0.0024777 0.012234-0.017653c-0.029039 0.0059666-0.05925-4.9114e-4 -0.083312-0.017808 0.0040262 0.015485-0.014556 0.028958-0.045682 0.018118-0.017344-0.017653 0.017344-0.011614-0.026945-0.025086 0.014092-0.0068136 0.029113-0.015485 0.042585 0.0061942 0.0037165-0.0048005 0.013008-0.0068136 0.016724-0.011614-0.017808-0.019667-0.054199-0.022764-0.06953-0.028184 0.0057748 0.0021584 0.011045 0.0054789 0.015485 0.0097559-0.023695 4.4002e-4 -0.047392-7.5e-4 -0.070923-0.0035617-0.006349-0.01053 0.003252-0.011769 0.013008-0.012853-0.014625-0.0016602-0.029114-0.004351-0.043359-0.0080524 0.01084-0.010685 0.015485-0.024777 0.043514-0.019047l-0.062871-0.012543c-0.0013937-0.0071233-0.020751-0.029268-0.010995-0.030971-0.023848-0.025241-0.086719-0.018892-0.11908-0.054044-0.0062107 5.4833e-4 -0.012437-8.5945e-4 -0.017808-0.0040262-0.028573-0.034479-0.063741-0.062908-0.10344-0.083622l-0.0041811-0.038714c-0.033913-0.022454 0.0072782 0.050638-0.049399 0.012543-0.040882-0.026635 0.0023228-0.027719-0.0043359-0.044443-0.024622-0.0078976-0.072472-0.021215-0.086099-0.067362 0.013318 0.0094461 0.018273 0.020286 0.028958 0.028958zm-0.26093-0.42167c0.0065039 0.0080524 0.024157 0.021989 0.016724 0.032365-0.022919-0.003252-0.016724-0.015021-0.016724-0.032365zm-0.071543-0.76111c0.0038714 0.0086719-0.0017034 0.019047-0.011769 0.030971 0.001038-0.011201 0.0051066-0.021907 0.011769-0.030971zm1.7619-1.0383h-0.001084c-0.021215-0.014711-0.014401-0.0091364 0.001084 0zm0.044908 0.024622c0.0057296 0 0.006349-0.0029422 0.0052651-0.0060393-0.0049554 0.0029422-0.015485 0-0.027719-0.0061942 0.0020131 0.0052651 0.0069685 0.01053 0.022454 0.012079zm-0.17468 2.7473-0.010375-0.002168c0.019976-0.010375 0.015021-0.0044908 0.010375 0.002168z" fill="#9bf6af"/>
</g>
<g clip-path="url(#a)">
<path d="m-1.7324 1.4468 0.0023228 0.0013937c0.0091364-0.0075879 0.0044908-0.0060393-0.0023228-0.0013937z" fill="#49ff58"/>
</g>
<g clip-path="url(#a)">
<path d="m-2.5198 1.2598-0.0037165-0.027254c0.035307 0.0060393 0.041037 0.026016 0.042895-0.0034068-0.039178 0.030042-0.058535-0.063181-0.10081-0.035771l-0.0012388-0.017963c0.0024777 0.0037165 0.0055748 0.0024777 0.0077427 0.0061942 0-0.035771-0.043359 0.0030971-0.056832-0.035462-0.0030971-0.013937-0.0012388-0.025861 0.0078976-0.020751l-0.025086-0.020596c-0.0026325-0.0080524 0.0057296-0.01022 0.0089816-0.002168l-0.025396-0.038404h0.0015485c-0.012774-0.0037743-0.025084-0.0089686-0.036701-0.015485 4e-15 -0.013472 0.007433 0.0030971 0.011769-0.002168-0.0080595-0.0055448-0.015718-0.011651-0.022919-0.018273 0.0078976-0.014556 0.0271 0 0.034842 0.015485 0.033603-0.040417-0.023383-0.013318-0.010685-0.072937l0.012698 0.020131c0.022454-0.024467 0.0077427-0.037939 0.016879-0.067981-0.0071233 0.0078976-0.026635 0.06442-0.046456 0.042585 0.0015161-0.011898-0.0039737-0.023601-0.014092-0.030042 0.016879-0.0052651 0.0083622-0.017808 0.0020131-0.034842l0.023073-0.0048005c-0.012388-0.016415-0.023228-0.012079-0.03732-0.020751-0.0043359-0.02137 0.011769-0.029268 0.02679-0.03732 0-0.034533-0.02617 0.029422-0.034223-0.010685 0.0060393-0.030971-0.0054199-0.048624-0.022919-0.082538 0.0058845-0.021215 0.014401 0.0023228 0.020441-0.0055748l-0.020441-0.016569c0-0.0044908 0.0058845-0.0034068 0.0089816-0.0027874-0.0089816-0.015485-0.023693 0-0.032674-0.024467-0.029113-0.0068136 0.036081-0.050018 0.011614-0.080524 0.0072782-0.0071233 0.013937 0.0043359 0.023073 0.0026325-0.0067282-0.026019-0.017773-0.050726-0.032674-0.073091l0.018118-0.0271c-0.019357 0.018583-0.03732-0.011769-0.051721-0.040882-0.0074124 0.0048919-0.014452 0.010327-0.02106 0.01626-0.0033022-0.014216-0.0049648-0.028764-0.0049554-0.043359 0.0051102-0.0040262 0.011924 0.0018583 0.019667 0.010375l-0.0030971-0.008517c0.012698-0.012079 0.023383-0.0015485 0.033139 0.010995l-0.018428 0.010685c0.010487 0.012898 0.025082 0.021807 0.041346 0.025241-0.0027669-0.0041466-0.0043712-0.0089594-0.0046456-0.013937 0.0030971 0.0034068 0.0065039 0.0055748 0.0088267 0.0049554 0.0023228-6.1942e-4 -0.0027874-0.0060393-0.0065039-0.013163l0.028338-0.0029422-0.009601-0.0041811 0.030971-0.043204c-0.025039-0.044173-0.036461-0.094763-0.032829-0.14541 0.01084 0.020441 0.0271 0.015485 0.04785 0.024777-0.028338 0.0052651-0.0038714 0.046456-0.017189 0.071853 0.0068136-0.013937 0.015485-0.0069685 0.018273-0.002168l-0.0049554-0.057451c0.016569 0.0082073 0.015485-0.0054199 0.030042-0.013782-0.038714-0.0058845-0.0035617-0.044443-0.0034068-0.068601 0.011614 0.0044908 0.020596 0.015485 0.0054199 0.036236 0.037785-0.012234-0.020286-0.052651 0.013937-0.066897-0.0026325 0.0057296-0.0057296 0.0078976-0.0018583 0.013318-0.002168-0.018737 0.022919-0.046456 0.027719-0.033603l-0.0026325 0.0058845c0.017963-0.038714 0.077427-0.10174 0.055283-0.12868 0.010466 0.010651 0.020095 0.022092 0.028803 0.034223l-0.015485-0.063645-0.012698-0.066897c0.015485 0.023693 0.077427 0.04847 0.066123 0.08579 0.012915-0.0072201 0.022766-0.018887 0.027719-0.032829-0.0078976 0.0013937-0.040417-0.01626-0.034842-0.024157 0.022339 0.0022423 0.044872 0.0016178 0.067052-0.0018583-0.011614 0.002168-0.030971-0.036236-0.016724-0.046456 0.0018583 0.0065039 0.027874 0.030971 0.026325 0.037785l0.0052651-0.057761c-0.0034068 0.012543 0.020286 0.028493 0.034223 0.032055-0.0082073-0.0037165 0.026945-0.021525 0.032674-0.030971l-0.018428 0.0030971c0.03732-0.025086 0.0035617-0.074795 0.046456-0.096784-9.2913e-4 0.010066 0.015485 0.051567 0.037785 0.045218-0.0079289-0.051137 0.0014452-0.10346 0.026635-0.14866l0.012698 0.0069685c0.0075889-0.0097712 0.01615-0.018747 0.025551-0.02679-0.009601 0.035771-0.030042 0.12667-0.042585 0.16198 0.019357 0 0.011304 0.010375 0.032365-0.0026325 0.012698 0.0058845-0.0038714 0.021835-0.010066 0.025861l0.05327-0.020751c-0.013472-0.023228 0.029422-0.041811 0.020751-0.058225-0.0092348 0.0066908-0.017563 0.014551-0.024777 0.023383-0.011459 0.013318-0.022454 0.02679-0.022454 0.02679-0.012698-0.018892 0.0012388-0.086254 0.047231-0.091984 0.014092 0.0058845 0.0077427 0.043359 0.011924 0.050792 0.0020131-0.0094461 0.032365-0.026945 0.037939-0.022299l-0.012543 0.017653c0.024777 0.0020131 0.026325-0.042275 0.059774-0.028184 0.0099107-0.0013937 0.034997 0.022144 0.033139 0.007433-0.025873-0.038373-0.039925-0.08349-0.040417-0.12977 0.026452 0.002525 0.05198 0.011052 0.07464 0.024932 0.020596 0.019821-0.015485 0.054199 0.0023228 0.071388 0-0.0066588 0.0066588-0.015485 0.0099107-0.018737 0.011459 0.0046456 0 0.021215 0.021215 0.015485 0-0.025086 0.046456-0.0023228 0.007433-0.021835 0.02106-0.0092913 0.024002 0.0027874 0.049708-9.2913e-4 -0.010066-0.015485 0.018892-0.057296 0.042585-0.066742 3.6414e-4 0.0065087 0.0028683 0.012715 0.0071233 0.017653 0.047695-0.0057296 0.072162 0.016724 0.11537 0.018892 0.0037165 0.006349 0.023848 0.015485 0.013937 0.025706 0.0071227-0.0066848 0.016411-0.010587 0.02617-0.010995 0.022764 0.024002-0.029422 0-0.013163 0.028184 0.0030971-0.014247 0.035926-0.016724 0.056522-0.023693-0.0020131-0.022609-0.043669-0.0086719-0.063026-0.0013937 0.0029422-0.030971 0.040572-0.059774 0.091984-0.068756 0.039333-0.0013937 0.011924 0.022919 0.019512 0.019512 0.066123 0.02617 0.073091-0.034068 0.12512 0.0055748 0.016415 0.025861-0.011924 0.03732-0.011769 0.052341-0.030971-0.0018583-0.040572-0.025861-0.060703-0.030971l0.021525 0.016569c-0.013692 0.0040587-0.028484 0.0017262-0.040262-0.006349 0.012388 0.024622 0.1132 0.033294 0.15331 0.073556 0.01084-0.0015485 0.028338 0 0.024932-0.01084l-0.016415-0.0057296c-0.0072782-0.021989 0.037785-0.0043359 0.021989-0.02137 0.029352-0.0037364 0.058997 0.004217 0.082538 0.022144l-0.0057296 0.022609c0.0027874-0.0060393-0.012698-0.022144-0.024312-0.020596 0.017499-0.0018583 0.028958 0.050483 0.057451 0.032365l-0.012234-0.024312c0.026016 0.0024777 0.068291-0.0061942 0.086874 0.020905 0.0018583-0.02679-0.0068136-0.0024777-0.0094461-0.03732-0.0012388 0.036236-0.068601-0.039333-0.060084 0.0044908-0.0040262-0.036701-0.026945-0.029577-0.040882-0.066433-0.0029422 0.0069685 0.0026325 0.017499-0.018428 0.0018583-0.0026463 0.0012975-0.0053905 0.0023848-0.0082073 0.003252l-0.0015485-0.0013937 0.0012388 0.0013937c-0.0018583 0-0.0018583 0 0 0 0.0036592 0.0047424 0.0058646 0.010444 0.006349 0.016415-0.018737 0.0089816-0.054044-0.010375-0.069375-0.0086719-0.011924-0.010375 0.0086719-0.0048005 0.0049554-0.015485-0.0080754 5.4067e-4 -0.01607 0.0019423-0.023848 0.0041811 0.0048005-0.015485-0.028338-0.037785 0.0097559-0.035771l-0.030971-0.01053c-0.015392-0.015258-0.03609-0.02397-0.057761-0.024312-0.014092-0.0082073-0.04243 0.0058845-0.02617-0.0026325l-0.051412-0.0049554v-0.0043359c-0.048934-0.016724-0.10577 0.013472-0.15981-0.023538-0.020818 0.0041706-0.042309 0.0035883-0.062871-0.0017034l-0.0054199-0.014711c-0.02137 0.0023228-0.066588-0.0092913-0.075105 0.0052651-0.02648-0.036081-0.1084 0.0024777-0.14789 0l0.002168 0.018273c-0.028242 0.0063425-0.055036 0.017953-0.078976 0.034223l0.006349 0.015485c-0.022454 0.020905-0.071388 0.0099107-0.11382 0.025086 0-0.0068136 0.012079-0.0086719 0.020905-0.0075879-0.067672-0.022609-0.089041 0.072627-0.14386 0.068446-0.0055877 0.0087341-0.015341 0.013905-0.025706 0.013627 9.2272e-4 -4.1685e-4 0.001684-0.0011238 0.002168-0.0020131l-0.0041811 0.0020131h-0.019202c0.0055686 9.9272e-4 0.011243 0.001253 0.016879 7.7427e-4 -0.010575 0.0065169-0.020302 0.014319-0.028958 0.023228l-0.014711-0.011924-0.0029422 0.0020131c-0.015485 0.001084-0.0044908 0.012079 0.0091364 0.019667-0.0043832 0.0055805-0.0072622 0.012192-0.0083622 0.019202-0.025086-0.015485-0.021989 0.030971-0.051567 0.015485 0.0020131 0.017499-0.046456 0.052341-0.030971 0.08037-0.0027874-0.0029422-0.0071233-0.0020131-0.0018583-0.0066588-0.013782 0.0068136-0.027874 0.013782-0.032055 0.028648l-0.020131-0.012234c-0.0018074 0.014689-0.0024288 0.0295-0.0018583 0.044288-0.021989 0.0052651-0.033449 0.0066588-0.032984-0.020751-0.011459 0.055128-0.017963 0.03701-0.023228 0.08486l-0.010066-0.01053c-0.0091364 0.011614-0.0078976 0.041191-0.023228 0.040262-0.049554 0.0046456-0.085944 0.13194-0.14959 0.19403 0.045063 0.0017034-0.033139 0.028493-0.0013937 0.045063-0.01115 0-0.019976 0.01022-0.024157-0.0060393-0.0035617 0.044288-0.034842 0.057761-0.017034 0.094307-0.011304 0.0020131-0.011459-0.013008-0.018428-0.010375 0 0.0040262 0.0041811 0.015485-0.0029422 0.018273-0.0071233 0.0027874-0.0061942-0.0080524-0.0083622-0.015485-0.011769 0.043979 0.017499 0.055438 0.044908 0.064884-0.020596 0.017344-0.020751 0.029113-0.0027874 0.048005-0.010066 0.0057296-0.021215 0.016879-0.02168-0.010685-0.003252 0.014556-0.023848 0.0909 0 0.094461-0.0065039 0.0041811-0.0038714 0.020905-0.0015485 0.024932-0.0043851 0.0229-0.0071278 0.046084-0.0082073 0.069375l0.0049554-0.0091364c0.025706 0.013318 0.0060393 0.026945 0.012079 0.05327h-0.0030971c-0.014092 0.061942 0.012234 0.024932-0.0046456 0.087028l0.016879-0.0054199c0.038094 0-0.016879 0.055593 0.0012388 0.088422l0.0088267-0.014401c0.013318 0.015485-0.036236 0.061942-0.035771 0.083312-0.0020131 0.0049554-0.0069685-0.0052651-0.01115-0.01053-0.0060393 0.056212 0.024002 0 0.040727 0.035771-0.0099107 0.01053-0.032984 0-0.027409 0.02617-0.0044908 0.015485 0.05838 0.059774 0.051721 0.10019 0.0049554-0.010685 0.010066-0.02106 0.024932-0.0086719 0.015485 0.02168 0.0024777 0.081144 0.041037 0.088577 4.6863e-5 0.0031739-0.0015298 0.0061521-0.0041811 0.0078976 0.016879 0.014556 0.043514 0.052651 0.062871 0.054044-0.038714 0.051257 0.10344 0.08006 0.059155 0.1149l0.042585 0.046456-0.0049554 0.0027874c0.014616 0.022156 0.040835 0.033721 0.067052 0.029577 0.0049554 0.008517-0.0038714 0.0082073-0.0065039 0.0099107 0.020618 0.035585 0.0586 0.057525 0.099726 0.057606l-0.0066588 0.017963c0.013318 0.0030971 0.058225 0.06891 0.12017 0.079131-0.0023698 0.0028192-0.0059228 0.0043664-0.009601 0.0041811 0.034533 0.0051102 0.061942 0.038869 0.092913 0.056367 0.030971 0.017499 0.059 0.027254 0.080679 0l0.045682-0.0029422c-0.050792-0.021215 0.015485-0.025396-0.0024777-0.04243 0.020441 0.0023228 0.046456 0.035307 0.020751 0.030971l-0.003252-0.0043359c-0.017963 0.029887 0.061942 0.032984 0.056057 0.053115 0.10502 0.022551 0.21244 0.031915 0.31978 0.027874l-0.015485-0.025396 0.035771-0.0020131c0.0099107 0.0051102 0.015485 0.019512-0.01053 0.02106 0.015485 0.013782 0.041656-0.017034 0.041037-0.022919 0.051876 0.0054199-0.014247 0.032984 0 0.0319l0.02106-0.0041811-0.0054199-0.0024777c0.010852-0.014904 0.026666-0.025447 0.044598-0.029732 0.019821 0 0.013163 0.013163 0.020751 0.011924 0 0.0018583 0.0034068 0.0018583 0.011924-0.0026325l0.044443-0.011459-0.023538-0.015485c0.016415-0.015485 0.040727-0.011304 0.014247-0.028184 0.019357 0.013163 0.061013 0.0040262 0.099726-0.0083622 0.025806-0.014678 0.05267-0.027411 0.08037-0.038094 0.018322-0.024649 0.043383-0.043472 0.072162-0.054199-0.0097559 0-0.026635-0.017653 0-0.028803 0.019512 0.048779 0.055128-0.011769 0.094307 0-0.030971-0.0049554 0.061942-0.05838 0.014401-0.061942 0.021525-0.012543 0.013163 0.013008 0.035462 0.0097559 0.035462-0.047695 0.10097-0.082692 0.1434-0.14448-0.0040262-0.0046456-0.019512-0.0013937-0.017499-0.019202l0.050328-0.010685c0.0057296-0.014092-0.020131-0.030042 0.01084-0.040882-0.006349 0-0.015485 0-0.013318-0.0089816 0.046572-0.055615 0.081723-0.11987 0.10344-0.18908 0.018838-0.071769 0.046565-0.1409 0.082538-0.2058-0.014401 0.017808-0.014401 0.0044908-0.013163-0.010685-0.0037165 0.0094461-0.015485-0.0027874-0.024777-0.002168l0.030971-0.056832c-0.023228-0.013163 0.0049554-0.065194-0.017653-0.072317l0.0020131 0.018892c-0.024932-0.025241-0.06411 0.030971-0.098488 0.024157 0.028029 0.029887-0.052651 0.060548-0.012234 0.1084-0.0082073 0.0078976-0.01053-0.0099107-0.019202-0.0065039 0.015485 0.013472 0.013008 0.026325 0 0.047386l-0.0026325-0.0034068c-0.015978 0.053792-0.0405 0.10467-0.072627 0.15067l0.018428 0.0024777c-0.0061809 0.0080684-0.014418 0.014326-0.023848 0.018118 0.015485 0.0271 0.022764-0.038404 0.041501-0.011924-0.042585 0.0035617-0.055128 0.099726-0.09601 0.091674-0.011769 0.02106 0.020441 0.0043359 0.0083622 0.025706h-0.012234l0.0089816 0.013008c-0.0086205 0.010109-0.023274 0.012529-0.034687 0.0057296 0.003252-0.0023228 0.0049554-0.0097559 0.0068136-0.013318-0.023693 0.0080524-0.032984 0.046456-0.040572 0.049089l0.019667-0.013472c-0.033913 0.056987-0.091829 0.11103-0.1307 0.16368l0.0088267 0.0029422c-0.028648 0.043359-0.036081 0.018273-0.073246 0.058225v-0.0026325c-0.0039772 0.014246-0.014501 0.025747-0.028338 0.030971 0.0071233-0.014401-0.03221-0.0037165-0.022299-0.021215-0.038094 0.039023-0.015485 0.023228-0.032674 0.067052l-0.013627-0.0082073c-0.0019732 0.01673-0.011811 0.031515-0.02648 0.039798 0.015485-0.021525-0.023848-0.010375-0.0083622-0.036546-0.059309 0.0029422-0.067517 0.057606-0.10623 0.027254-0.013318 0.043204 0.054044 0.0049554 0.042585 0.016879 0.016569 0.0078976-0.01115 0.032829-0.030971 0.034997-0.018737 0.0048005-0.044753-0.036701-0.087183-0.022454 0.0041811-0.0012388 0.0040262-0.0041811 0.0083622-0.0054199-0.018273-0.0055748-0.028338 0.025706-0.052186 0.010685-0.0075879 0.023538-0.026945 0.0012388-0.025706 0.030971l0.041037-0.01053c-0.021835 0.009601-0.039798 0.045527-0.082692 0.033294 0.0053392-0.0081781 0.012493-0.015014 0.020905-0.019976-0.012543-0.0075879-0.021525 0.0075879-0.034378 0 0-0.029268 0.050173-0.011459 0.071698-0.035462-0.013782-0.01115-0.043824 0.025241-0.035771-0.0071233-0.013008 0.041346-0.043979-9.2913e-4 -0.072007 0.032829l0.0013937-0.017653c-0.0065241 0.0062558-0.014509 0.010781-0.023228 0.013163l0.015485-0.024312c-0.023538 0.021525-0.046456-0.010066-0.069065-0.0040262 0.04785 0.0037165 0.01022 0.023073 0.030971 0.035462-0.061942 0.019821-0.034068-0.048624-0.10019-0.046456 0.0092913-0.0017034 0.032829 0.013782 0.018273 0.020286-0.01352-0.0043408-0.025614-0.01226-0.034997-0.022919-0.044443 0 0.0043359 0.018428-0.015485 0.0271-0.012234-0.022299-0.022919 0.0066588-0.044443 0.011304l0.0029422-0.017344c-0.048005-0.020131-0.02106 0.033603-0.06349 0.0075879l0.024777-0.017963-0.024157-0.001084 0.009601-0.017963c-0.020147 0.0062073-0.042071 0.0015176-0.057916-0.012388 0.0018583 0.013472-0.013318 0.029422-0.035926 0.023073-0.011614-0.014401 0.014092-0.013318-0.017963-0.020286 0.01115-0.0082073 0.023538-0.019047 0.030971 0 0.003252-0.0049554 0.010375-0.0083622 0.013627-0.013163-0.011459-0.01626-0.038094-0.014711-0.049399-0.017808 0.0041469 0.0015074 0.0078295 0.0040692 0.010685 0.007433-0.017319 0.003501-0.034996 0.0049048-0.052651 0.0041811-0.0037165-0.009601 0.0038714-0.011614 0.01115-0.013627-0.0092913-0.0027874-0.018273 0.0015485-0.030971-0.0038714 0.0091364-0.011304 0.015485-0.024932 0.034533-0.021835l-0.044753-0.0065039c0-0.0069685-0.011614-0.025706-0.0038714-0.027874-0.015485-0.018892-0.066742-0.002168-0.087338-0.029422-0.0044222 0.0012129-0.0091427 6.5754e-4 -0.013163-0.0015485-0.021989-0.022299-0.030971-0.052496-0.070923-0.059929l0.0017034-0.032055c-0.025396-0.013318 0 0.041501-0.043824 0.018737-0.030971-0.015485 0.0055748-0.023228 0.0027874-0.036855-0.019047-0.0030971-0.057606-0.0082073-0.061942-0.046456 0.011769 0.0043359 0.013782 0.012853 0.02137 0.018892zm-0.18459-0.29268c0.0052651 0.0052651 0.019976 0.014247 0.011769 0.022609-0.021215-1.5485e-4 -0.013782-0.009601-0.011769-0.022609zm-0.063026-0.53518c0.0040262 0.0065039-0.001084 0.013472-0.01053 0.020905 7.598e-4 -0.0082212 0.004506-0.015879 0.01053-0.021525zm1.2605-0.76947h-0.001084c-0.014866-0.011304-0.0097559-0.0068136 0.001084 0zm0.032829 0.018428c0.0046456-0.0012388 0.0052651-0.0035617 0.0046456-0.006349-0.0040262 0.0034068-0.012388 0.0012388-0.020751-0.0027874 0.0015485 0.0051102 0.0041811 0.009601 0.016105 0.0091364zm-0.12884 2.0109-0.0077427-0.0023228c0.013627-0.0097559 0.01115-0.0038714 0.0077427 0.0023228z" fill="#49ff58"/>
</g>
<g clip-path="url(#a)">
<path d="m-2.2654 1.3222 0.0017034-0.020286c0.028648-0.002168 0.029732 0.011614 0.036701-0.011304-0.038404 0.030971-0.036701-0.036546-0.077427-0.0083622l0.0023228-0.013318c0.0015485 0.0023228 0.0038714 0.001084 0.0055748 0.003252 0.0077427-0.02679-0.038094 0.0099107-0.044288-0.015485 0-0.009601 0.0027874-0.018273 0.01053-0.016415l-0.019512-0.01022c-3.872e-4 -0.0021671 8.5361e-4 -0.0042954 0.0029303-0.0050261 0.0020766-7.3067e-4 0.0043768 1.5173e-4 0.0054319 0.0020838l-0.017499-0.023383h0.0013937c-0.010467-7.7203e-4 -0.020837-0.0025349-0.030971-0.0052651 0.0030971-0.009601 0.0071233 0.001084 0.011459-0.0030971 0 0-0.019512-0.0094461-0.018737-0.0097559 0.004488-0.004238 0.010775-0.0059937 0.01681-0.004694 0.0060344 0.0012997 0.011042 0.0054881 0.013387 0.011198 0.038404-0.03252-0.018892-0.0065039 0-0.047695l0.010066 0.011769c0.023538-0.019047 0.010995-0.025861 0.023073-0.046456-0.0075879 0.0054199-0.032674 0.044908-0.049244 0.033139 0.0024777-0.0060393 0.002168-0.012543-0.010066-0.018428 0.016569-0.0052651 0.010066-0.012543 0.0057296-0.022919l0.022919-0.0051102c-0.010066-0.0094461-0.021525-0.0057296-0.034068-0.01022-0.0020131-0.013318 0.015485-0.019667 0.030042-0.025706 0.0018583-0.02137-0.027564 0.020441-0.034068-0.0041811 0.007433-0.019512-0.0030971-0.029732-0.019357-0.050792 0.0066588-0.013472 0.014556 0.001084 0.020751-0.0040262l-0.019976-0.0099107c0-0.0029422 0.0058845-0.0023228 0.0089816-0.0020131-0.0083622-0.0091364-0.023693 0-0.0319-0.014711-0.027564-0.0044908 0.036855-0.030971 0.010685-0.050947 0.0069685-0.0041811 0.014247 0.0030971 0.023383 0.002168-0.0090213-0.017633-0.02084-0.033688-0.034997-0.04754l0.016569-0.01626c-0.018583 0.01084-0.037475-0.0094461-0.052651-0.029732-0.0071 0.0026707-0.01403 0.0057736-0.020751 0.0092913-0.0031789-0.0096478-0.0055613-0.01954-0.0071233-0.029577 0.0046456-0.002168 0.012079 0.002168 0.019976 0.0083622l-0.0040262-0.0058845c0.011459-0.0071233 0.023228 7.7427e-4 0.033913 0.0097559l-0.017034 0.0060393c0.012167 0.0097726 0.026599 0.016323 0.041966 0.019047-0.0026256-0.0023903-0.0044619-0.0055229-0.0052651-0.0089816 0.0026212 0.0020734 0.0058035 0.003314 0.0091364 0.0035617 0.0026325 0-0.0027874-0.0038714-0.0071233-0.0089816h0.0271l-0.0097559-0.0035617 0.025396-0.025551c-0.018428-0.027409-0.050328-0.060548-0.046456-0.10189 0.013008 0.015485 0.027874 0.014092 0.04847 0.023538-0.02617 0 9.2913e-4 0.030971-0.0089816 0.046456 0.0051102-0.0083622 0.015485-0.0026325 0.017653 0l-0.01084-0.039023c0.016569 0.0077427 0.014556-0.0013937 0.02617-0.0054199-0.036701-0.0091364-0.010375-0.030971-0.013782-0.048934 0.01115 0.0049554 0.020751 0.013782 0.01053 0.02648 0.033139-0.0026325-0.0271-0.040417 0.0023228-0.045527-0.0017034 0.0037165-0.0041811 0.0048005 0 0.0092913-0.0048005-0.013782 0.013627-0.030971 0.020286-0.019667l-0.0018583 0.0035617c0.012698-0.023538 0.048624-0.063645 0.026325-0.088267 0.0030971 0.0023228 0.02679 0.026635 0.030971 0.030971-0.017478-0.035246-0.032987-0.071434-0.046456-0.1084 0.016724 0.02168 0.072472 0.053735 0.069994 0.081144 0.0069685-0.0018583 0.013472-0.0057296 0.016879-0.020905-0.0058845 0-0.035617-0.020286-0.032674-0.02617 0.017256 0.0054002 0.03508 0.008778 0.053115 0.010066-0.0089816 0-0.030971-0.035926-0.022299-0.042275 0.0030971 0.0060393 0.028184 0.030971 0.028184 0.036701l-0.006349-0.04816c0 0.0099107 0.021215 0.028029 0.03221 0.033603-0.0066588-0.0048005 0.017034-0.013163 0.019667-0.020596l-0.013937-0.001084c0.024932-0.013782-0.009601-0.064729 0.019202-0.078511 9.2913e-4 0.0092913 0.019202 0.049089 0.034533 0.046456-0.0055748-0.020905-0.022454-0.10344-0.0015485-0.13333l0.010066 0.0083622s0.015485-0.023073 0.015485-0.022144c-0.0023228 0.036701-0.0066588 0.11428-0.0089816 0.14479 0.013937 0.003252 0.009601 0.01115 0.022609 0.0026325 0.0097559 0.0077427 0 0.019357-0.0030971 0.021989l0.033758-0.01022c-0.012388-0.022919 0.014247-0.034533 0.0061942-0.051876-0.0095467 0.012739-0.018089 0.0262-0.025551 0.040262-0.012234-0.019976-0.01022-0.077427 0.020441-0.08037 0.0097559 0.0071233 0.010375 0.042585 0.013782 0.049863 0-0.0088267 0.018583-0.022609 0.022764-0.017344l-0.0065039 0.015485c0.016724 0.0044908 0.013163-0.038094 0.036546-0.020905 0.0065039 0 0.024932 0.025396 0.022299 0.010995-0.020605-0.040885-0.033369-0.085268-0.03763-0.13085 0.019639 0.0058325 0.037696 0.016052 0.052805 0.029887 0.014247 0.020751-0.0071233 0.053425 0.0057296 0.071078-1.7961e-4 -0.0064671 0.0016018-0.012837 0.0051102-0.018273 0.0077427 0.0051102 0.0012388 0.020905 0.015485 0.016569-0.0017034-0.024932 0.028803 0 0.0030971-0.021525 0.013008-0.008517 0.015485 0.0035617 0.032055 0-0.0028416-0.024678 0.0069383-0.049128 0.026016-0.065039 1.0703e-4 0.0063592 0.001811 0.012589 0.0049554 0.018118 0.030971-0.0030971 0.046456 0.015485 0.075414 0.016879 0.0018583 0.0065039 0.014247 0.015485 0.0077427 0.025241 0.0043359-0.0041811 0.0088267-0.012234 0.017344-0.011924 0.013472 0.023073-0.018892 0.0015485-0.0099107 0.028493 0.0026325-0.014401 0.024002-0.017808 0.037785-0.025551 0-0.022454-0.027874-0.0071233-0.040882 7.7427e-4 0.0055886-0.034277 0.030629-0.06216 0.06411-0.071388 0.026945-0.0034068 0.0069685 0.021835 0.012079 0.018118 0.043204 0.019047 0.053735-0.040262 0.086564-0.0065039 0.0089816 0.023383-0.012234 0.03732-0.013472 0.051721-0.021215 0.0013937-0.025396-0.02106-0.038869-0.024312l0.013472 0.013937c-0.0086497 0.0053518-0.019784 0.0044083-0.027409-0.0023228 0.0066588 0.022144 0.074021 0.023073 0.097868 0.054509 0.0080524-0.0030971 0.020441-0.0041811 0.019357-0.013782l-0.010995-0.0029422c-0.0026325-0.019512 0.027874-0.009601 0.018583-0.023383 0.018273-0.0026325 0.042585-0.009601 0.058071 0.0089816l-0.0075879 0.02168c0.0029422-0.0058845-0.0058845-0.018737-0.015485-0.015485 0.013627-0.0041811 0.014092 0.04212 0.038094 0.021835l-0.0055748-0.020905c0.019047-0.0012388 0.052341-0.013627 0.0638 0.0068136 0.0048005-0.024157-0.0051102-0.001084-0.002168-0.030971-0.0068136 0.033139-0.046456-0.027564-0.046456 0.011459 0.0023228-0.033139-0.016415-0.023383-0.022299-0.055748-0.0029422 0.0068136 0 0.015485-0.014401 0.0040262-0.0019076 0.001646-0.0040468 0.0030026-0.006349 0.0040262v-9.2913e-4 0.0012388c-0.001084 0-0.0013937 0 0 0 0.002215 0.0044045 0.0031791 0.0093322 0.0027874 0.014247-0.015485 0.01115-0.039023-0.0023228-0.050483 0.0017034-0.0075879-0.0080524 0.0071233-0.0058845 0.0055748-0.015485l-0.017808 0.0066588c0.0049554-0.015485-0.015485-0.033913 0.01084-0.035152l-0.021215-0.0075879c-0.0084505-0.012988-0.023454-0.020161-0.038869-0.018583-0.0089816-0.0065039-0.030971 0.009601-0.018273 0h-0.035771v-0.0040262c-0.033449-0.012079-0.072937 0.017499-0.1084-0.017344-0.013885 0.0048629-0.02901 0.0048629-0.042895 0l-0.0037165-0.014711c-0.014556 0.003252-0.045372-0.010995-0.051721 0.0037165-0.018737-0.036701-0.07495-9.2913e-4 -0.10205-0.0044908l0.0026325 0.018428c-0.019654 0.0045125-0.037928 0.013703-0.05327 0.02679l0.0060393 0.015485c-0.014401 0.018428-0.049863 0.0030971-0.078511 0.014092 0-0.0065039 0.0077427-0.0072782 0.014092-0.0054199-0.050638-0.025861-0.056987 0.057141-0.097713 0.046456-0.0028293 0.0069114-0.010188 0.010819-0.017499 0.0092913l0.0017034-0.0017034-0.0030971 0.0015485-0.015485-0.002168c0.0041946 0.0017268 0.0086382 0.0027724 0.013163 0.0030971-0.0071913 0.0047302-0.013527 0.010647-0.018737 0.017499l-0.013008-0.012698-0.0017034 0.0013937c-0.011769-9.2913e-4 -0.0018583 0.01053 0.0097559 0.019202-0.0023968 0.0048133-0.0036677 0.010109-0.0037165 0.015485-0.022299-0.018737-0.012698 0.022764-0.038559 0.0048005 0.0038714 0.015485-0.029113 0.038249-0.012079 0.064729-0.0029422-0.0029422-0.006349-0.0026325-0.0026325-0.0058845-0.0097559 0.0035617-0.020286 0.007433-0.020596 0.019512l-0.019202-0.013318c0.0013321 0.012285 0.0033483 0.024486 0.0060393 0.036546-0.017963 0-0.027719 0-0.030971-0.022764-0.0012388 0.04305-0.0097559 0.027254-0.0069685 0.064884l-0.0099107-0.01022c-0.006349 0.0080524 0 0.031745-0.013627 0.028803-0.040727-0.0020131-0.05869 0.087338-0.1084 0.1259 0.04274 0.0065039-0.028184 0.016724 0.0026325 0.0319-0.01022 0-0.017963 0.0052651-0.023383-0.0068136 0 0.030971-0.028648 0.037939-0.0077427 0.065349-0.01084 0-0.012698-0.01022-0.019357-0.0089816 0.0015485 0.0029422 0.0060393 0.011614-9.2913e-4 0.012853-0.0069685 0.0012388-0.0069685-0.006349-0.0097559-0.012234-0.0075879 0.030971 0.022144 0.040262 0.049708 0.049089-0.018118 0.01053-0.017653 0.018583 0 0.032365-0.0099107 0.003252-0.020751 0.01022-0.022144-0.008517-0.0026325 0.0094461-0.020286 0.060703 0.0029422 0.063955-0.006349 0.0026325-0.0030971 0.013782-9.2913e-4 0.016569-0.0037267 0.015207-0.0056498 0.0308-0.0057296 0.046456l0.0044908-0.0060393c0.02679 0.0089816 0.006349 0.017963 0.011304 0.035617h-0.0029422c-0.015485 0.041811 0.011459 0.01626-0.0077427 0.058535l0.017189-0.0041811c0.037939-0.0013937-0.018583 0.037785-0.0013937 0.059155l0.0086719-0.01022c0.013472 0.0092913-0.040727 0.045063-0.041656 0.060239-0.0023228 0.0037165-0.0066588-0.003252-0.010066-0.0066588-0.011304 0.040262 0.023383-0.0012388 0.036546 0.021989-0.010685 0.0083622-0.032365 0.003252-0.029268 0.02106-0.0058845 0.012388 0.052031 0.036546 0.040262 0.066588 0.0061942-0.008517 0.012543-0.016724 0.024932-0.0092913 0.011304 0.013937-0.0089816 0.060084 0.025706 0.060548-9.1221e-4 0.0026425-0.0025817 0.0049582-0.0048005 0.0066588 0.013163 0.008517 0.032829 0.033294 0.050328 0.030971-0.041966 0.046456 0.077427 0.047386 0.032829 0.082383l0.029732 0.030971-0.0046456 0.0030971c0.011036 0.016507 0.032398 0.022601 0.050483 0.014401 0.0020131 0.0066588-0.0048005 0.0077427-0.0072782 0.009601 0.023073 0.033913 0.028803 0.035617 0.070769 0.033758l-0.0078976 0.016879c0.010375-9.2913e-4 0.034223 0.054509 0.07975 0.055593-0.0018065 0.002587-0.0045115 0.0044087-0.0075879 0.0051102 0.044908 0.0048005 0.080215 0.091829 0.11862 0.032829l0.032055-0.0069685c-0.033139-0.015485 0.012853-0.026016 0.0020131-0.041037 0.013937 0 0.029113 0.029732 0.011614 0.028029l-0.0015485-0.0040262c-0.015485 0.030971 0.039798 0.026016 0.034223 0.046456 0.071026 0.016868 0.1438 0.025289 0.2168 0.025086l-0.010995-0.025706 0.023848-0.001084c0.0072782 0.0055748 0.011614 0.019976-0.0058845 0.020441 0.011304 0.014247 0.027254-0.015485 0.02648-0.021215 0.035462 0.0071233-0.0078976 0.03221 0.0024777 0.031745l0.014092-0.0037165-0.0037165-0.0026325c0.0094461-0.012853 0.0088267-0.02137 0.028493-0.026635 0.013937 0.0013937 0.010375 0.014092 0.015485 0.013472 0 0.0020131 0.002168 0.0023228 0.0078976-0.0015485l0.030971-0.0068136-0.017808-0.016724c0.0099107-0.014092 0.027564-0.0075879 0.007433-0.026325 0.014711 0.015485 0.043204 0.0092913 0.06922 0.0012388 0.025086-0.01053 0.046456-0.027254 0.054664-0.024622 0.0089806-0.019505 0.025896-0.034222 0.046456-0.040417-0.0071233-9.2913e-4 -0.022609-0.019821-0.0043359-0.02617 0.021525 0.046456 0.040572-0.0018583 0.073711 0.015485-0.025241-0.0094461 0.040572-0.040882 0.0018583-0.052031 0.015485-0.0072782 0.012543 0.013318 0.029732 0.013937 0.020131-0.036546 0.071388-0.05296 0.099107-0.096475-0.0048005-0.0043359-0.017653-0.0041811-0.018583-0.017963l0.04243-0.0012388c0.0030971-0.010066-0.023538-0.0271 0.0030971-0.030971-0.0057296-7.7427e-4 -0.014401-0.0020131-0.012853-0.0088267 0.03432-0.035045 0.058785-0.078526 0.070923-0.12605 0.011132-0.049864 0.033128-0.096658 0.06442-0.13705-0.013782 0.011304-0.014092 0.0023228-0.013472-0.0080524-0.0035617 0.006349-0.015485-0.0024777-0.024312-0.0024777l0.028184-0.03732c-0.023383-0.009601 0.0024777-0.044134-0.020286-0.049244l0.0030971 0.012853c-0.025706-0.017344-0.063181 0.019667-0.098023 0.013782 0.029268 0.020286-0.049708 0.036081-0.0082073 0.069065-0.0072782 0.0043359-0.010685-0.0072782-0.018892-0.0057296 0.015485 0.0097559 0.014711 0.018273 0.0037165 0.030971l-0.0030971-0.0026325c-0.010296 0.034393-0.028424 0.065931-0.05296 0.092139l0.017499 0.0038714c-0.0050119 0.0053547-0.011762 0.0087569-0.019047 0.009601 0.018428 0.021215 0.014711-0.023693 0.036391-0.0027874-0.038714-0.003252-0.035307 0.063336-0.073866 0.050792-0.0071233 0.013008 0.019202 0.0066588 0.011924 0.019821l-0.010995-0.0023228 0.0099107 0.010995c-0.0065039 0.0078976-0.022609 0.0029422-0.029422-0.0018583 0.0023228-9.2913e-4 0.0017034-0.006349 0.0030971-0.0088267-0.018737 0.0020131-0.019357 0.029422-0.025396 0.030971l0.014401-0.0068136c-0.018118 0.037939-0.057761 0.067826-0.077427 0.10685l0.0072782 0.0041811c-0.014401 0.0319-0.024777 0.0088267-0.046456 0.036391v-0.0024777c4.5627e-5 0.010061-0.0061107 0.019111-0.015485 0.022764 0.0023228-0.012079-0.024002-0.0080524-0.019821-0.022454-0.02106 0.029577-0.0075879 0.018428-0.013008 0.055903l-0.01084-0.0092913c-0.0012388 0.014711 9.2913e-4 0.020751-0.013318 0.03252 0.0077427-0.017344-0.018428-0.013472-0.01084-0.035152-0.041346-0.0080524-0.038869 0.046456-0.068756 0.012234-0.0035617 0.040572 0.036855 0.010685 0.030971 0.020905 0.011924 0.0092913-0.0040262 0.030971-0.016724 0.030971-0.012234 0.0027874-0.033913-0.040107-0.060084-0.030971 0.0029422 0 0.002168-0.0035617 0.0049554-0.0041811-0.012234-0.0071233-0.016724 0.02106-0.032674 0.0057296-0.0034068 0.023073-0.017189 0-0.015485 0.029113l0.025706-0.0091364c-0.013008 0.0088267-0.022609 0.043824-0.050947 0.030042 0.002743-0.0071957 0.0069631-0.013737 0.012388-0.019202-0.008517-0.0077427-0.013318 0.0071233-0.021989-9.2913e-4 0-0.028958 0.030971-0.0094461 0.043824-0.032674-0.0092913-0.011459-0.026325 0.023538-0.023228-0.0083622-0.0061942 0.040727-0.0271-0.0023228-0.043204 0.030042v-0.015485c-0.0030971 0.0029422-0.0088267 0.011924-0.014247 0.012079l0.0091364-0.023538c-0.014711 0.020596-0.028958-0.012388-0.042585-0.0049554 0.029422 0.002168 0.0060393 0.022454 0.019047 0.034842-0.039333 0.021215-0.020751-0.04754-0.061942-0.042895 0.0058845-0.0018583 0.019976 0.012543 0.01053 0.019667-0.0090998-0.0046924-0.016395-0.012259-0.020751-0.021525-0.027409 0.001084 0.0020131 0.018118-0.01115 0.027564-0.0065039-0.021835-0.015485 0.0072782-0.028803 0.012698l0.0030971-0.017344c-0.028958-0.016569-0.015485 0.034687-0.041811 0.013163l0.017653-0.020131-0.015485 0.0015485 0.0080524-0.018428c-0.019047 0.009601-0.023383 0.0041811-0.036391-0.0057296 0 0.012853-0.011924 0.029887-0.026325 0.026016-0.0057296-0.012698 0.010685-0.014247-0.009601-0.017653 0.0088267-0.0089816 0.018118-0.020751 0.020905-0.0029422 0.0026325-0.0051102 0.0078976-0.0091364 0.01053-0.014247-0.0057296-0.014401-0.023073-0.0097559-0.030042-0.011614 0.0026919 0.001092 0.0047807 0.0032938 0.0057296 0.0060393-0.011647 0.0049592-0.023797 0.0086455-0.036236 0.010995-0.001084-0.0082073 0.0043359-0.01115 0.009601-0.014401-0.0057296-9.2913e-4 -0.012853 0.0043359-0.02106 0.0015485 0.0078976-0.011924 0.014247-0.025396 0.0271-0.026016l-0.030197 0.0017034c0.0012388-0.0065039-0.0035617-0.02168 0.0018583-0.024777-0.0075879-0.014247-0.046456 0.0080524-0.056677-0.012388-0.0029755 0.0017882-0.0065316 0.0023438-0.0099107 0.0015485-0.012388-0.015485-0.013627-0.038714-0.043204-0.037475l0.0077427-0.0271c-0.017344-0.006349-0.0089816 0.034842-0.037939 0.023538-0.022144-0.0075879 0.0089816-0.020286 0.0091364-0.030971-0.015485 0.0018583-0.046456 0.0051102-0.04243-0.023383 0.0058845 0.0018583 0.0060393 0.0082073 0.01115 0.011459zm-0.11815-0.17855c0.0044908 0.0030971 0.017808 0.0069685 0.0089816 0.013472-0.020441 0.0020131-0.012234-0.0054199-0.0089816-0.013472zm-0.054819-0.33712c0.0048005 0.0046456 0 0.0088267-0.0077427 0.013008-6.1964e-4 -0.0057746 0.0024887-0.011307 0.0077427-0.013782zm0.82073-0.53394h-0.001084c-0.0092913-0.01053-0.0061942-0.0066588 0.001084-7.7427e-4zm0.021215 0.014711c0.002719-9.3342e-4 0.0044031-0.003654 0.0040262-0.0065039-0.0034068 0.0035617-0.0088267 0.002168-0.014401-9.2913e-4 0 0.0040262 0.0020131 0.0080524 0.0097559 0.0066588zm-0.087803 1.3627-0.0057296-0.0029422c0.0092913-0.0088267 0.007433-0.0034068 0.0057296 0.0023228z" fill="#5ad67f"/>
</g>
</g>
</g>
<defs>
<clipPath id="b">
<path d="m-3.2757-1.2113h2.8557v2.9373h-2.8557z"/>
</clipPath>
<clipPath id="a">
<path d="m-3.2757-1.2113h2.8557v2.9373h-2.8557z"/>
</clipPath>
</defs>
</svg>
